<svg xmlns="http://www.w3.org/2000/svg" viewBox="0 0 1766 1055.501"><defs><style>.a{fill:#d5d5d5;}.b{fill:none;stroke:#d5d5d5;}</style></defs><g transform="translate(-115 -25)"><rect class="a" width="28" height="76" transform="translate(115 833)"/><rect class="a" width="28" height="41" transform="translate(171 781)"/><rect class="a" width="28" height="13" transform="translate(227 809)"/><rect class="a" width="28" height="39" transform="translate(283 844)"/><rect class="a" width="28" height="61" transform="translate(339 871)"/><rect class="a" width="28" height="48" transform="translate(395 809)"/><rect class="a" width="28" height="34" transform="translate(451 788)"/><rect class="a" width="28" height="39" transform="translate(507 760)"/><rect class="a" width="28" height="50" transform="translate(563 738)"/><rect class="a" width="28" height="24" transform="translate(619 719)"/><rect class="a" width="28" height="55" transform="translate(675 673)"/><rect class="a" width="28" height="17" transform="translate(731 631)"/><rect class="a" width="28" height="29" transform="translate(787 593)"/><rect class="a" width="28" height="79" transform="translate(843 561)"/><rect class="a" width="28" height="71" transform="translate(899 593)"/><rect class="a" width="28" height="109" transform="translate(955 499)"/><rect class="a" width="28" height="108" transform="translate(1011 432)"/><rect class="a" width="28" height="81" transform="translate(1067 375)"/><rect class="a" width="28" height="37" transform="translate(1123 350)"/><rect class="a" width="28" height="16" transform="translate(1179 326)"/><rect class="a" width="28" height="74" transform="translate(1235 350)"/><rect class="a" width="28" height="74" transform="translate(1291 375)"/><rect class="a" width="28" height="127" transform="translate(1347 402)"/><rect class="a" width="28" height="149" transform="translate(1403 350)"/><rect class="a" width="28" height="212" transform="translate(1459 220)"/><rect class="a" width="28" height="99" transform="translate(1515 171)"/><rect class="a" width="28" height="48" transform="translate(1571 132)"/><rect class="a" width="28" height="60" transform="translate(1627 102)"/><rect class="a" width="28" height="21" transform="translate(1683 92)"/><rect class="a" width="28" height="25" transform="translate(1739 67)"/><rect class="a" width="28" height="18" transform="translate(1795 49)"/><rect class="a" width="28" height="24" transform="translate(1853 25)"/><line class="b" x2="2" y2="1013" transform="translate(1809.5 67.5)"/><line class="b" x2="2" y2="1031" transform="translate(1867.5 49.5)"/><line class="b" y2="171" transform="translate(129.5 909.5)"/><line class="b" y2="258" transform="translate(185.5 822.5)"/><line class="b" y2="259" transform="translate(241.5 821.5)"/><line class="b" y2="197" transform="translate(297.5 883.5)"/><line class="b" y2="148" transform="translate(353.5 932.5)"/><line class="b" y2="223" transform="translate(409.5 857.5)"/><line class="b" y2="258" transform="translate(465.5 822.5)"/><line class="b" y2="279" transform="translate(521.5 801.5)"/><line class="b" y2="292" transform="translate(577.5 788.5)"/><line class="b" y2="337" transform="translate(633.5 743.5)"/><line class="b" y2="352" transform="translate(689.5 728.5)"/><line class="b" y2="432" transform="translate(745.5 648.5)"/><line class="b" y2="458" transform="translate(801.5 622.5)"/><line class="b" y2="441" transform="translate(857.5 639.5)"/><line class="b" y2="416" transform="translate(913.5 664.5)"/><line class="b" y2="472" transform="translate(969.5 608.5)"/><line class="b" y2="540" transform="translate(1025.5 540.5)"/><line class="b" y2="624" transform="translate(1081.5 456.5)"/><line class="b" y2="693" transform="translate(1137.5 387.5)"/><line class="b" y2="738" transform="translate(1193.5 342.5)"/><line class="b" y2="656" transform="translate(1249.5 424.5)"/><line class="b" y2="631" transform="translate(1305.5 449.5)"/><line class="b" y2="551" transform="translate(1361.5 529.5)"/><line class="b" y2="581" transform="translate(1417.5 499.5)"/><line class="b" y2="648" transform="translate(1473.5 432.5)"/><line class="b" y2="810" transform="translate(1529.5 270.5)"/><line class="b" y2="900" transform="translate(1585.5 180.5)"/><line class="b" y2="918" transform="translate(1641.5 162.5)"/><line class="b" y2="967" transform="translate(1697.5 113.5)"/><line class="b" y2="991" transform="translate(1753.5 89.5)"/></g></svg>