<svg xmlns="http://www.w3.org/2000/svg" viewBox="0 0 198.4 110.304"><defs><style>.a{fill:#627eea;}.b{fill:#c5c6dd;}.c,.f{fill:#fff;}.d{fill:#939dc3;}.e{fill:#ccd1d9;}.f{stroke:#707070;}.g{fill:#8b8b8b;font-size:15px;font-family:SegoeUI-Semibold, Segoe UI;font-weight:600;}</style></defs><g transform="translate(-1256.6 -201)"><g transform="translate(1256.6 258.55)"><ellipse class="a" cx="26.377" cy="26.377" rx="26.377" ry="26.377"/><g transform="translate(14.837 6.594)"><path class="b" d="M7.5,0V14.623l12.359,5.523Z" transform="translate(4.863)"/><path class="c" d="M12.361,0,0,20.145l12.361-5.523Z"/><path class="b" d="M7.5,20.791v9.936l12.368-17.11Z" transform="translate(4.863 8.831)"/><path class="c" d="M12.361,30.726V20.789L0,13.616Z" transform="translate(0 8.831)"/><path class="d" d="M7.5,21.568l12.359-7.176L7.5,8.872Z" transform="translate(4.863 5.754)"/><path class="e" d="M0,14.391l12.361,7.176V8.872Z" transform="translate(0 5.754)"/></g></g><path class="f" d="M22.816,48H12A12,12,0,0,1,0,36V12A12,12,0,0,1,12,0H154a12,12,0,0,1,12,12V36a12,12,0,0,1-12,12H36.917c-2.248,2.751-13.1,15.928-14.807,15.928C20.262,63.928,30.386,53.854,22.816,48Z" transform="translate(1288.5 201.5)"/><text class="g" transform="translate(1301 230)"><tspan x="0" y="0">Deberias comprarme?</tspan></text></g></svg>