<svg xmlns="http://www.w3.org/2000/svg" viewBox="0 0 192.904 117.304"><defs><style>.a{fill:#1c75bc;}.b,.c{fill:#fff;}.b{fill-rule:evenodd;}.c{stroke:#707070;}.d{fill:#8b8b8b;font-size:15px;font-family:SegoeUI-Semibold, Segoe UI;font-weight:600;}</style></defs><g transform="translate(-1021.096 -404)"><g transform="translate(1021.096 468.096)"><circle class="a" cx="26.604" cy="26.604" r="26.604"/><path class="b" d="M40.622,15.08,37.233,25.69s-2.09,5.289-7.063,5.289H6.195l1.71-5.289H29.632l3.42-10.61h-21.7L13.036,9.79H36.885C42.111,9.79,40.622,15.08,40.622,15.08ZM7.05,17.93H19.909l-1.647,4.909H5.371Z" transform="translate(3.56 6.489)"/></g><path class="c" d="M22.816,48H12A12,12,0,0,1,0,36V12A12,12,0,0,1,12,0H154a12,12,0,0,1,12,12V36a12,12,0,0,1-12,12H36.917c-2.248,2.751-13.1,15.928-14.807,15.928C20.262,63.928,30.386,53.854,22.816,48Z" transform="translate(1047.5 404.5)"/><text class="d" transform="translate(1095 434)"><tspan x="0" y="0">Es alegre</tspan></text></g></svg>