<svg xmlns="http://www.w3.org/2000/svg" viewBox="0 0 577.091 364.566"><defs><style>.a{fill:#fff;}.a,.c,.d,.e{stroke:#707070;}.a,.c{stroke-width:5px;}.b{fill:#e8e8e8;}.c{fill:#707070;}.d{fill:#6a6a6a;}.e,.j{fill:none;}.e{stroke-width:6px;}.f{fill:#e5e5e5;}.g{fill:#0ecbb1;}.h{fill:#bf273c;}.i{stroke:none;}</style></defs><g transform="translate(-1036 -263)"><g class="a" transform="translate(1036 263)"><rect class="i" width="577.091" height="316.441" rx="13"/><rect class="j" x="2.5" y="2.5" width="572.091" height="311.441" rx="10.5"/></g><rect class="b" width="248.269" height="278.909" transform="translate(1341.597 278.013)"/><g class="c" transform="translate(1055.558 278.013)"><rect class="i" width="28.24" height="286.415" rx="1"/><rect class="j" x="2.5" y="2.5" width="23.24" height="281.415" rx="1.5"/></g><g class="d" transform="translate(1246.142 579.441)"><rect class="i" width="148.273" height="44.553"/><rect class="j" x="0.5" y="0.5" width="147.273" height="43.553"/></g><line class="e" x2="301.879" transform="translate(1168.806 624.566)"/><rect class="f" width="189.47" height="27.524" rx="7" transform="translate(1088.063 523.227)"/><g transform="translate(1090.508 291.775)"><rect class="f" width="101.458" height="7.507" rx="3.753"/><rect class="f" width="75.788" height="7.507" rx="3.753" transform="translate(0 30.026)"/><rect class="f" width="24.448" height="7.507" rx="3.753" transform="translate(0 60.052)"/><rect class="f" width="125.906" height="7.507" rx="3.753" transform="translate(0 90.079)"/><rect class="f" width="110.015" height="7.507" rx="3.753" transform="translate(0 120.105)"/><rect class="f" width="81.9" height="7.507" rx="3.753" transform="translate(0 150.131)"/><rect class="f" width="30.56" height="7.507" rx="3.753" transform="translate(0 180.157)"/><rect class="f" width="110.015" height="7.507" rx="3.753" transform="translate(0 210.184)"/></g><rect class="f" width="26.892" height="27.524" rx="7" transform="translate(1284.867 523.227)"/><g transform="translate(1363.1 323.052)"><rect class="g" width="14.669" height="32.528" rx="4" transform="translate(0 30.026)"/><rect class="h" width="14.669" height="20.017" rx="4" transform="translate(28.115)"/><rect class="g" width="14.669" height="33.779" rx="4" transform="translate(56.23 20.017)"/><rect class="g" width="14.669" height="51.295" rx="4" transform="translate(84.345 43.788)"/><rect class="h" width="14.669" height="10.009" rx="4" transform="translate(112.46 10.009)"/><rect class="h" width="14.669" height="28.775" rx="4" transform="translate(140.574 15.013)"/><rect class="g" width="14.669" height="52.546" rx="4" transform="translate(168.689 36.282)"/><rect class="h" width="14.669" height="17.515" rx="4" transform="translate(196.804 77.568)"/></g></g></svg>